<svg xmlns="http://www.w3.org/2000/svg" viewBox="0 0 920 540" role="img" aria-labelledby="title desc">
<title id="title">Koszt gazu na model według rozmiaru partii</title><desc id="desc">Mediana jednostek gazu na model; lokalny Hardhat</desc>
<style>text{font-family:Arial,sans-serif;fill:#111827}.title{font-size:20px;font-weight:700}.axis{font-size:12px}.label{font-size:11px}.grid{stroke:#d1d5db;stroke-width:1}.bar{shape-rendering:crispEdges}.legend{font-size:12px}</style><text x="460" y="30" class="title" text-anchor="middle">Koszt gazu na model według rozmiaru partii</text><text x="460" y="50" class="axis" text-anchor="middle">Mediana jednostek gazu na model; lokalny Hardhat</text><line x1="92" y1="458" x2="890" y2="458" class="grid"/><text x="82" y="462" class="axis" text-anchor="end">0k</text><line x1="92" y1="393.6666666666667" x2="890" y2="393.6666666666667" class="grid"/><text x="82" y="397.6666666666667" class="axis" text-anchor="end">30k</text><line x1="92" y1="329.33333333333337" x2="890" y2="329.33333333333337" class="grid"/><text x="82" y="333.33333333333337" class="axis" text-anchor="end">60k</text><line x1="92" y1="265" x2="890" y2="265" class="grid"/><text x="82" y="269" class="axis" text-anchor="end">90k</text><line x1="92" y1="200.66666666666669" x2="890" y2="200.66666666666669" class="grid"/><text x="82" y="204.66666666666669" class="axis" text-anchor="end">120k</text><line x1="92" y1="136.33333333333331" x2="890" y2="136.33333333333331" class="grid"/><text x="82" y="140.33333333333331" class="axis" text-anchor="end">150k</text><line x1="92" y1="72" x2="890" y2="72" class="grid"/><text x="82" y="76" class="axis" text-anchor="end">180k</text><path d="M 92 255.96545555555556 L 225 255.96545555555556 L 358 255.96545555555556 L 491 255.96545555555556 L 624 255.96545555555556 L 757 255.96545555555556 L 890 255.96545555555556" fill="none" stroke="#64748b" stroke-width="3"/><circle cx="92" cy="255.96545555555556" r="5" fill="#64748b"/><circle cx="225" cy="255.96545555555556" r="5" fill="#64748b"/><circle cx="358" cy="255.96545555555556" r="5" fill="#64748b"/><circle cx="491" cy="255.96545555555556" r="5" fill="#64748b"/><circle cx="624" cy="255.96545555555556" r="5" fill="#64748b"/><circle cx="757" cy="255.96545555555556" r="5" fill="#64748b"/><circle cx="890" cy="255.96545555555556" r="5" fill="#64748b"/><line x1="590" y1="512" x2="612" y2="512" stroke="#64748b" stroke-width="3"/><text x="618" y="516" class="legend">Rejestracja indywidualna</text><path d="M 92 107.55703333333332 L 225 232.24790000000002 L 358 307.04655111111106 L 491 331.97936333333337 L 624 346.9365631111111 L 757 351.9294302222222 L 890 354.4216392222222" fill="none" stroke="#16a34a" stroke-width="3"/><circle cx="92" cy="107.55703333333332" r="5" fill="#16a34a"/><text x="92" y="97.55703333333332" class="label" text-anchor="middle">163,419</text><circle cx="225" cy="232.24790000000002" r="5" fill="#16a34a"/><text x="225" y="222.24790000000002" class="label" text-anchor="middle">105,273</text><circle cx="358" cy="307.04655111111106" r="5" fill="#16a34a"/><text x="358" y="297.04655111111106" class="label" text-anchor="middle">70,393</text><circle cx="491" cy="331.97936333333337" r="5" fill="#16a34a"/><text x="491" y="321.97936333333337" class="label" text-anchor="middle">58,766</text><circle cx="624" cy="346.9365631111111" r="5" fill="#16a34a"/><text x="624" y="336.9365631111111" class="label" text-anchor="middle">51,791</text><circle cx="757" cy="351.9294302222222" r="5" fill="#16a34a"/><text x="757" y="341.9294302222222" class="label" text-anchor="middle">49,463</text><circle cx="890" cy="354.4216392222222" r="5" fill="#16a34a"/><text x="890" y="344.4216392222222" class="label" text-anchor="middle">48,301</text><line x1="770" y1="512" x2="792" y2="512" stroke="#16a34a" stroke-width="3"/><text x="798" y="516" class="legend">Rejestracja Merkle</text><text x="92" y="488" class="axis" text-anchor="middle">1</text><text x="225" y="488" class="axis" text-anchor="middle">2</text><text x="358" y="488" class="axis" text-anchor="middle">5</text><text x="491" y="488" class="axis" text-anchor="middle">10</text><text x="624" y="488" class="axis" text-anchor="middle">25</text><text x="757" y="488" class="axis" text-anchor="middle">50</text><text x="890" y="488" class="axis" text-anchor="middle">100</text><text x="460" y="525" class="axis" text-anchor="middle">Rozmiar partii [modele]</text><text x="18" y="265" class="axis" transform="rotate(-90 18 265)" text-anchor="middle">Gaz na model</text></svg>